<?xml version="1.0" encoding="UTF-8"?>
<svg width="32" height="32" viewBox="0 0 32 32" fill="none" xmlns="http://www.w3.org/2000/svg">
  <rect width="32" height="32" rx="4" fill="#3B82F6"/>
  <path d="M8 22V10H12C14.2091 10 16 11.7909 16 14C16 16.2091 14.2091 18 12 18H10V22H8Z" fill="white"/>
  <path d="M10 12V16H12C13.1046 16 14 15.1046 14 14C14 12.8954 13.1046 12 12 12H10Z" fill="#3B82F6"/>
  <path d="M18 10V22H20V18H23C24.6569 18 26 16.6569 26 15C26 13.3431 24.6569 12 23 12H20V10H18Z" fill="white"/>
  <path d="M20 14H23C23.5523 14 24 14.4477 24 15C24 15.5523 23.5523 16 23 16H20V14Z" fill="#3B82F6"/>
</svg>
